<svg xmlns="http://www.w3.org/2000/svg" xmlns:xlink="http://www.w3.org/1999/xlink" width="685" zoomAndPan="magnify" viewBox="0 0 513.75 173.249993" height="231" preserveAspectRatio="xMidYMid meet" version="1.0"><defs><g/></defs><g fill="#2e3191" fill-opacity="1"><g transform="translate(19.929273, 116.43836)"><g><path d="M 10.46875 0 C 9.53125 0 8.738281 -0.316406 8.09375 -0.953125 C 7.457031 -1.597656 7.140625 -2.382812 7.140625 -3.3125 L 7.140625 -48.03125 C 7.140625 -48.96875 7.457031 -49.765625 8.09375 -50.421875 C 8.738281 -51.085938 9.53125 -51.421875 10.46875 -51.421875 L 27.84375 -51.421875 C 33.101562 -51.421875 37.164062 -50.21875 40.03125 -47.8125 C 42.90625 -45.40625 44.34375 -42.164062 44.34375 -38.09375 C 44.34375 -35.238281 43.664062 -32.863281 42.3125 -30.96875 C 40.96875 -29.082031 39.238281 -27.675781 37.125 -26.75 C 40.070312 -25.8125 42.488281 -24.3125 44.375 -22.25 C 46.269531 -20.1875 47.21875 -17.582031 47.21875 -14.4375 C 47.21875 -9.914062 45.695312 -6.378906 42.65625 -3.828125 C 39.613281 -1.273438 34.828125 0 28.296875 0 Z M 26.078125 -29.171875 C 30.453125 -29.171875 33.519531 -29.90625 35.28125 -31.375 C 37.050781 -32.851562 37.9375 -34.921875 37.9375 -37.578125 C 37.9375 -39.878906 36.988281 -41.71875 35.09375 -43.09375 C 33.207031 -44.46875 30.617188 -45.15625 27.328125 -45.15625 L 13.84375 -45.15625 L 13.84375 -29.171875 Z M 27.625 -6.265625 C 32.382812 -6.265625 35.757812 -7 37.75 -8.46875 C 39.738281 -9.945312 40.734375 -12.035156 40.734375 -14.734375 C 40.734375 -20.335938 36.390625 -23.140625 27.703125 -23.140625 L 13.84375 -23.140625 L 13.84375 -6.265625 Z M 27.625 -6.265625 "/></g></g></g><g fill="#2e3191" fill-opacity="1"><g transform="translate(70.984796, 116.43836)"><g><path d="M 9.140625 0.375 C 8.203125 0.375 7.410156 0.0546875 6.765625 -0.578125 C 6.128906 -1.222656 5.8125 -2.015625 5.8125 -2.953125 L 5.8125 -50.765625 C 5.8125 -51.691406 6.128906 -52.488281 6.765625 -53.15625 C 7.410156 -53.820312 8.203125 -54.15625 9.140625 -54.15625 C 10.117188 -54.15625 10.925781 -53.832031 11.5625 -53.1875 C 12.207031 -52.550781 12.53125 -51.742188 12.53125 -50.765625 L 12.53125 -2.953125 C 12.53125 -2.015625 12.195312 -1.222656 11.53125 -0.578125 C 10.863281 0.0546875 10.066406 0.375 9.140625 0.375 Z M 9.140625 0.375 "/></g></g></g><g fill="#2e3191" fill-opacity="1"><g transform="translate(89.329418, 116.43836)"><g><path d="M 15.390625 0.734375 C 13.234375 0.734375 11.234375 0.289062 9.390625 -0.59375 C 7.546875 -1.476562 6.082031 -2.765625 5 -4.453125 C 3.925781 -6.148438 3.390625 -8.101562 3.390625 -10.3125 C 3.390625 -13.945312 4.828125 -16.84375 7.703125 -19 C 10.578125 -21.164062 14.785156 -22.25 20.328125 -22.25 L 29.25 -22.25 L 29.25 -22.84375 C 29.25 -26.082031 28.445312 -28.410156 26.84375 -29.828125 C 25.25 -31.253906 22.757812 -31.96875 19.375 -31.96875 C 17.507812 -31.96875 15.851562 -31.820312 14.40625 -31.53125 C 12.957031 -31.238281 11.347656 -30.796875 9.578125 -30.203125 C 9.179688 -30.109375 8.863281 -30.0625 8.625 -30.0625 C 7.882812 -30.0625 7.242188 -30.328125 6.703125 -30.859375 C 6.160156 -31.398438 5.890625 -32.066406 5.890625 -32.859375 C 5.890625 -34.179688 6.53125 -35.113281 7.8125 -35.65625 C 11.988281 -37.425781 16.234375 -38.3125 20.546875 -38.3125 C 23.941406 -38.3125 26.804688 -37.625 29.140625 -36.25 C 31.472656 -34.875 33.191406 -33.09375 34.296875 -30.90625 C 35.398438 -28.71875 35.953125 -26.347656 35.953125 -23.796875 L 35.953125 -2.953125 C 35.953125 -2.015625 35.617188 -1.222656 34.953125 -0.578125 C 34.296875 0.0546875 33.5 0.375 32.5625 0.375 C 31.625 0.375 30.835938 0.0546875 30.203125 -0.578125 C 29.566406 -1.222656 29.25 -2.015625 29.25 -2.953125 L 29.25 -4.859375 C 25.613281 -1.128906 20.992188 0.734375 15.390625 0.734375 Z M 17.90625 -5.15625 C 20.0625 -5.15625 22.144531 -5.679688 24.15625 -6.734375 C 26.175781 -7.796875 27.875 -9.113281 29.25 -10.6875 L 29.25 -16.875 L 21.21875 -16.875 C 13.800781 -16.875 10.09375 -14.929688 10.09375 -11.046875 C 10.09375 -9.285156 10.691406 -7.863281 11.890625 -6.78125 C 13.097656 -5.695312 15.101562 -5.15625 17.90625 -5.15625 Z M 17.90625 -5.15625 "/></g></g></g><g fill="#2e3191" fill-opacity="1"><g transform="translate(130.733759, 116.43836)"><g><path d="M 23.203125 0.734375 C 19.671875 0.734375 16.40625 -0.0507812 13.40625 -1.625 C 10.414062 -3.195312 8.019531 -5.453125 6.21875 -8.390625 C 4.425781 -11.335938 3.53125 -14.800781 3.53125 -18.78125 C 3.53125 -22.757812 4.425781 -26.222656 6.21875 -29.171875 C 8.019531 -32.117188 10.414062 -34.378906 13.40625 -35.953125 C 16.40625 -37.523438 19.671875 -38.3125 23.203125 -38.3125 C 25.804688 -38.3125 28.050781 -37.976562 29.9375 -37.3125 C 31.832031 -36.644531 33.59375 -35.796875 35.21875 -34.765625 C 36.195312 -34.128906 36.6875 -33.269531 36.6875 -32.1875 C 36.6875 -31.457031 36.40625 -30.785156 35.84375 -30.171875 C 35.28125 -29.554688 34.628906 -29.25 33.890625 -29.25 C 33.347656 -29.25 32.804688 -29.394531 32.265625 -29.6875 C 30.648438 -30.519531 29.265625 -31.117188 28.109375 -31.484375 C 26.953125 -31.859375 25.515625 -32.046875 23.796875 -32.046875 C 19.566406 -32.046875 16.25 -30.828125 13.84375 -28.390625 C 11.4375 -25.960938 10.234375 -22.757812 10.234375 -18.78125 C 10.234375 -14.800781 11.4375 -11.597656 13.84375 -9.171875 C 16.25 -6.742188 19.566406 -5.53125 23.796875 -5.53125 C 25.515625 -5.53125 26.953125 -5.710938 28.109375 -6.078125 C 29.265625 -6.441406 30.648438 -7.046875 32.265625 -7.890625 C 32.804688 -8.179688 33.347656 -8.328125 33.890625 -8.328125 C 34.628906 -8.328125 35.28125 -8.019531 35.84375 -7.40625 C 36.40625 -6.789062 36.6875 -6.113281 36.6875 -5.375 C 36.6875 -4.289062 36.195312 -3.429688 35.21875 -2.796875 C 33.59375 -1.765625 31.832031 -0.914062 29.9375 -0.25 C 28.050781 0.40625 25.804688 0.734375 23.203125 0.734375 Z M 23.203125 0.734375 "/></g></g></g><g fill="#2e3191" fill-opacity="1"><g transform="translate(170.00157, 116.43836)"><g><path d="M 9.140625 0.375 C 8.203125 0.375 7.410156 0.0546875 6.765625 -0.578125 C 6.128906 -1.222656 5.8125 -2.015625 5.8125 -2.953125 L 5.8125 -50.765625 C 5.8125 -51.691406 6.128906 -52.488281 6.765625 -53.15625 C 7.410156 -53.820312 8.203125 -54.15625 9.140625 -54.15625 C 10.066406 -54.15625 10.863281 -53.820312 11.53125 -53.15625 C 12.195312 -52.488281 12.53125 -51.691406 12.53125 -50.765625 L 12.53125 -20.625 L 30.0625 -36.828125 C 30.789062 -37.472656 31.523438 -37.796875 32.265625 -37.796875 C 33.398438 -37.796875 34.222656 -37.472656 34.734375 -36.828125 C 35.253906 -36.191406 35.515625 -35.429688 35.515625 -34.546875 C 35.515625 -33.710938 35.09375 -32.878906 34.25 -32.046875 L 23.65625 -22.546875 L 36.984375 -4.859375 C 37.472656 -4.222656 37.71875 -3.5625 37.71875 -2.875 C 37.71875 -1.894531 37.394531 -1.109375 36.75 -0.515625 C 36.113281 0.078125 35.304688 0.375 34.328125 0.375 C 33.835938 0.375 33.347656 0.25 32.859375 0 C 32.367188 -0.25 31.953125 -0.59375 31.609375 -1.03125 L 18.9375 -18.265625 L 12.53125 -12.453125 L 12.53125 -2.953125 C 12.53125 -2.015625 12.195312 -1.222656 11.53125 -0.578125 C 10.863281 0.0546875 10.066406 0.375 9.140625 0.375 Z M 9.140625 0.375 "/></g></g></g><g fill="#2e3191" fill-opacity="1"><g transform="translate(210.153467, 116.43836)"><g><path d="M 25.125 0.734375 C 20.3125 0.734375 16.113281 -1.128906 12.53125 -4.859375 L 12.53125 -2.953125 C 12.53125 -2.015625 12.195312 -1.222656 11.53125 -0.578125 C 10.863281 0.0546875 10.066406 0.375 9.140625 0.375 C 8.203125 0.375 7.410156 0.0546875 6.765625 -0.578125 C 6.128906 -1.222656 5.8125 -2.015625 5.8125 -2.953125 L 5.8125 -50.765625 C 5.8125 -51.691406 6.128906 -52.488281 6.765625 -53.15625 C 7.410156 -53.820312 8.203125 -54.15625 9.140625 -54.15625 C 10.117188 -54.15625 10.925781 -53.832031 11.5625 -53.1875 C 12.207031 -52.550781 12.53125 -51.742188 12.53125 -50.765625 L 12.53125 -32.703125 C 16.113281 -36.441406 20.3125 -38.3125 25.125 -38.3125 C 28.164062 -38.3125 31.050781 -37.535156 33.78125 -35.984375 C 36.507812 -34.441406 38.71875 -32.179688 40.40625 -29.203125 C 42.101562 -26.234375 42.953125 -22.757812 42.953125 -18.78125 C 42.953125 -14.800781 42.101562 -11.328125 40.40625 -8.359375 C 38.71875 -5.390625 36.507812 -3.128906 33.78125 -1.578125 C 31.050781 -0.0351562 28.164062 0.734375 25.125 0.734375 Z M 24.171875 -5.53125 C 27.796875 -5.53125 30.710938 -6.679688 32.921875 -8.984375 C 35.140625 -11.296875 36.25 -14.5625 36.25 -18.78125 C 36.25 -23.007812 35.140625 -26.273438 32.921875 -28.578125 C 30.710938 -30.890625 27.796875 -32.046875 24.171875 -32.046875 C 21.910156 -32.046875 19.785156 -31.539062 17.796875 -30.53125 C 15.804688 -29.53125 14.050781 -28.191406 12.53125 -26.515625 L 12.53125 -11.046875 C 14.050781 -9.378906 15.804688 -8.039062 17.796875 -7.03125 C 19.785156 -6.03125 21.910156 -5.53125 24.171875 -5.53125 Z M 24.171875 -5.53125 "/></g></g></g><g fill="#2e3191" fill-opacity="1"><g transform="translate(256.641251, 116.43836)"><g><path d="M 22.390625 0.734375 C 18.609375 0.734375 15.289062 -0.0703125 12.4375 -1.6875 C 9.59375 -3.3125 7.394531 -5.609375 5.84375 -8.578125 C 4.300781 -11.554688 3.53125 -14.957031 3.53125 -18.78125 C 3.53125 -22.613281 4.300781 -26.015625 5.84375 -28.984375 C 7.394531 -31.960938 9.59375 -34.257812 12.4375 -35.875 C 15.289062 -37.5 18.609375 -38.3125 22.390625 -38.3125 C 26.128906 -38.3125 29.421875 -37.5 32.265625 -35.875 C 35.117188 -34.257812 37.328125 -31.960938 38.890625 -28.984375 C 40.460938 -26.015625 41.25 -22.613281 41.25 -18.78125 C 41.25 -14.957031 40.460938 -11.554688 38.890625 -8.578125 C 37.328125 -5.609375 35.117188 -3.3125 32.265625 -1.6875 C 29.421875 -0.0703125 26.128906 0.734375 22.390625 0.734375 Z M 22.390625 -5.375 C 24.410156 -5.375 26.335938 -5.835938 28.171875 -6.765625 C 30.015625 -7.703125 31.535156 -9.175781 32.734375 -11.1875 C 33.941406 -13.207031 34.546875 -15.765625 34.546875 -18.859375 C 34.546875 -21.898438 33.941406 -24.425781 32.734375 -26.4375 C 31.535156 -28.457031 30.015625 -29.921875 28.171875 -30.828125 C 26.335938 -31.734375 24.410156 -32.1875 22.390625 -32.1875 C 20.328125 -32.1875 18.375 -31.734375 16.53125 -30.828125 C 14.695312 -29.921875 13.1875 -28.457031 12 -26.4375 C 10.820312 -24.425781 10.234375 -21.898438 10.234375 -18.859375 C 10.234375 -15.765625 10.820312 -13.207031 12 -11.1875 C 13.1875 -9.175781 14.695312 -7.703125 16.53125 -6.765625 C 18.375 -5.835938 20.328125 -5.375 22.390625 -5.375 Z M 22.390625 -5.375 "/></g></g></g><g fill="#2e3191" fill-opacity="1"><g transform="translate(301.434566, 116.43836)"><g><path d="M 15.390625 0.734375 C 13.234375 0.734375 11.234375 0.289062 9.390625 -0.59375 C 7.546875 -1.476562 6.082031 -2.765625 5 -4.453125 C 3.925781 -6.148438 3.390625 -8.101562 3.390625 -10.3125 C 3.390625 -13.945312 4.828125 -16.84375 7.703125 -19 C 10.578125 -21.164062 14.785156 -22.25 20.328125 -22.25 L 29.25 -22.25 L 29.25 -22.84375 C 29.25 -26.082031 28.445312 -28.410156 26.84375 -29.828125 C 25.25 -31.253906 22.757812 -31.96875 19.375 -31.96875 C 17.507812 -31.96875 15.851562 -31.820312 14.40625 -31.53125 C 12.957031 -31.238281 11.347656 -30.796875 9.578125 -30.203125 C 9.179688 -30.109375 8.863281 -30.0625 8.625 -30.0625 C 7.882812 -30.0625 7.242188 -30.328125 6.703125 -30.859375 C 6.160156 -31.398438 5.890625 -32.066406 5.890625 -32.859375 C 5.890625 -34.179688 6.53125 -35.113281 7.8125 -35.65625 C 11.988281 -37.425781 16.234375 -38.3125 20.546875 -38.3125 C 23.941406 -38.3125 26.804688 -37.625 29.140625 -36.25 C 31.472656 -34.875 33.191406 -33.09375 34.296875 -30.90625 C 35.398438 -28.71875 35.953125 -26.347656 35.953125 -23.796875 L 35.953125 -2.953125 C 35.953125 -2.015625 35.617188 -1.222656 34.953125 -0.578125 C 34.296875 0.0546875 33.5 0.375 32.5625 0.375 C 31.625 0.375 30.835938 0.0546875 30.203125 -0.578125 C 29.566406 -1.222656 29.25 -2.015625 29.25 -2.953125 L 29.25 -4.859375 C 25.613281 -1.128906 20.992188 0.734375 15.390625 0.734375 Z M 17.90625 -5.15625 C 20.0625 -5.15625 22.144531 -5.679688 24.15625 -6.734375 C 26.175781 -7.796875 27.875 -9.113281 29.25 -10.6875 L 29.25 -16.875 L 21.21875 -16.875 C 13.800781 -16.875 10.09375 -14.929688 10.09375 -11.046875 C 10.09375 -9.285156 10.691406 -7.863281 11.890625 -6.78125 C 13.097656 -5.695312 15.101562 -5.15625 17.90625 -5.15625 Z M 17.90625 -5.15625 "/></g></g></g><g fill="#2e3191" fill-opacity="1"><g transform="translate(342.838895, 116.43836)"><g><path d="M 9.140625 0.375 C 8.203125 0.375 7.410156 0.0546875 6.765625 -0.578125 C 6.128906 -1.222656 5.8125 -2.015625 5.8125 -2.953125 L 5.8125 -34.546875 C 5.8125 -35.484375 6.128906 -36.28125 6.765625 -36.9375 C 7.410156 -37.601562 8.203125 -37.9375 9.140625 -37.9375 C 10.066406 -37.9375 10.863281 -37.601562 11.53125 -36.9375 C 12.195312 -36.28125 12.53125 -35.484375 12.53125 -34.546875 L 12.53125 -31.390625 C 15.96875 -36.003906 19.820312 -38.3125 24.09375 -38.3125 L 24.453125 -38.3125 C 25.390625 -38.3125 26.164062 -37.988281 26.78125 -37.34375 C 27.394531 -36.707031 27.703125 -35.925781 27.703125 -35 C 27.703125 -34.0625 27.378906 -33.296875 26.734375 -32.703125 C 26.097656 -32.117188 25.289062 -31.828125 24.3125 -31.828125 L 23.9375 -31.828125 C 21.582031 -31.828125 19.421875 -31.25 17.453125 -30.09375 C 15.492188 -28.9375 13.851562 -27.351562 12.53125 -25.34375 L 12.53125 -2.953125 C 12.53125 -2.015625 12.195312 -1.222656 11.53125 -0.578125 C 10.863281 0.0546875 10.066406 0.375 9.140625 0.375 Z M 9.140625 0.375 "/></g></g></g><g fill="#2e3191" fill-opacity="1"><g transform="translate(371.055724, 116.43836)"><g><path d="M 21.359375 0.734375 C 18.316406 0.734375 15.429688 -0.0351562 12.703125 -1.578125 C 9.984375 -3.128906 7.773438 -5.390625 6.078125 -8.359375 C 4.378906 -11.328125 3.53125 -14.800781 3.53125 -18.78125 C 3.53125 -22.757812 4.378906 -26.234375 6.078125 -29.203125 C 7.773438 -32.179688 9.984375 -34.441406 12.703125 -35.984375 C 15.429688 -37.535156 18.316406 -38.3125 21.359375 -38.3125 C 26.171875 -38.3125 30.375 -36.441406 33.96875 -32.703125 L 33.96875 -50.765625 C 33.96875 -51.742188 34.296875 -52.550781 34.953125 -53.1875 C 35.617188 -53.832031 36.421875 -54.15625 37.359375 -54.15625 C 38.285156 -54.15625 39.066406 -53.820312 39.703125 -53.15625 C 40.347656 -52.488281 40.671875 -51.691406 40.671875 -50.765625 L 40.671875 -2.953125 C 40.671875 -2.015625 40.347656 -1.222656 39.703125 -0.578125 C 39.066406 0.0546875 38.285156 0.375 37.359375 0.375 C 36.421875 0.375 35.617188 0.0546875 34.953125 -0.578125 C 34.296875 -1.222656 33.96875 -2.015625 33.96875 -2.953125 L 33.96875 -4.859375 C 30.375 -1.128906 26.171875 0.734375 21.359375 0.734375 Z M 22.328125 -5.53125 C 24.585938 -5.53125 26.707031 -6.03125 28.6875 -7.03125 C 30.675781 -8.039062 32.4375 -9.378906 33.96875 -11.046875 L 33.96875 -26.515625 C 32.4375 -28.191406 30.675781 -29.53125 28.6875 -30.53125 C 26.707031 -31.539062 24.585938 -32.046875 22.328125 -32.046875 C 18.691406 -32.046875 15.765625 -30.890625 13.546875 -28.578125 C 11.335938 -26.273438 10.234375 -23.007812 10.234375 -18.78125 C 10.234375 -14.5625 11.335938 -11.296875 13.546875 -8.984375 C 15.765625 -6.679688 18.691406 -5.53125 22.328125 -5.53125 Z M 22.328125 -5.53125 "/></g></g></g><g fill="#545454" fill-opacity="1"><g transform="translate(25.90341, 158.959254)"><g><path d="M 3.390625 0.125 C 3.085938 0.125 2.832031 0.0195312 2.625 -0.1875 C 2.414062 -0.394531 2.3125 -0.648438 2.3125 -0.953125 L 2.3125 -15.671875 C 2.3125 -15.972656 2.414062 -16.226562 2.625 -16.4375 C 2.832031 -16.65625 3.085938 -16.765625 3.390625 -16.765625 C 3.691406 -16.765625 3.945312 -16.65625 4.15625 -16.4375 C 4.375 -16.226562 4.484375 -15.972656 4.484375 -15.671875 L 4.484375 -0.953125 C 4.484375 -0.648438 4.375 -0.394531 4.15625 -0.1875 C 3.945312 0.0195312 3.691406 0.125 3.390625 0.125 Z M 3.390625 0.125 "/></g></g></g><g fill="#545454" fill-opacity="1"><g transform="translate(32.697298, 158.959254)"><g><path d="M 3.390625 0.125 C 3.085938 0.125 2.832031 0.0195312 2.625 -0.1875 C 2.414062 -0.394531 2.3125 -0.648438 2.3125 -0.953125 L 2.3125 -15.1875 C 2.3125 -15.613281 2.460938 -15.984375 2.765625 -16.296875 C 3.066406 -16.609375 3.429688 -16.765625 3.859375 -16.765625 L 4.171875 -16.765625 C 4.679688 -16.765625 5.117188 -16.523438 5.484375 -16.046875 L 14.65625 -2.796875 L 14.65625 -15.671875 C 14.65625 -15.972656 14.757812 -16.226562 14.96875 -16.4375 C 15.175781 -16.65625 15.429688 -16.765625 15.734375 -16.765625 C 16.035156 -16.765625 16.289062 -16.65625 16.5 -16.4375 C 16.71875 -16.226562 16.828125 -15.972656 16.828125 -15.671875 L 16.828125 -1.4375 C 16.828125 -1 16.671875 -0.628906 16.359375 -0.328125 C 16.054688 -0.0234375 15.691406 0.125 15.265625 0.125 L 14.96875 0.125 C 14.71875 0.125 14.476562 0.0664062 14.25 -0.046875 C 14.03125 -0.171875 13.847656 -0.332031 13.703125 -0.53125 L 4.484375 -13.859375 L 4.484375 -0.953125 C 4.484375 -0.648438 4.375 -0.394531 4.15625 -0.1875 C 3.945312 0.0195312 3.691406 0.125 3.390625 0.125 Z M 3.390625 0.125 "/></g></g></g><g fill="#545454" fill-opacity="1"><g transform="translate(51.839372, 158.959254)"><g><path d="M 7.25 0.125 C 6.945312 0.125 6.691406 0.0195312 6.484375 -0.1875 C 6.273438 -0.394531 6.171875 -0.648438 6.171875 -0.953125 L 6.171875 -14.609375 L 1.3125 -14.609375 C 1.019531 -14.609375 0.78125 -14.703125 0.59375 -14.890625 C 0.40625 -15.085938 0.3125 -15.332031 0.3125 -15.625 C 0.3125 -15.90625 0.40625 -16.144531 0.59375 -16.34375 C 0.78125 -16.539062 1.019531 -16.640625 1.3125 -16.640625 L 13.1875 -16.640625 C 13.46875 -16.640625 13.707031 -16.539062 13.90625 -16.34375 C 14.101562 -16.144531 14.203125 -15.90625 14.203125 -15.625 C 14.203125 -15.332031 14.101562 -15.085938 13.90625 -14.890625 C 13.707031 -14.703125 13.46875 -14.609375 13.1875 -14.609375 L 8.34375 -14.609375 L 8.34375 -0.953125 C 8.34375 -0.648438 8.234375 -0.394531 8.015625 -0.1875 C 7.804688 0.0195312 7.550781 0.125 7.25 0.125 Z M 7.25 0.125 "/></g></g></g><g fill="#545454" fill-opacity="1"><g transform="translate(66.356835, 158.959254)"><g><path d="M 3.390625 0 C 3.085938 0 2.832031 -0.101562 2.625 -0.3125 C 2.414062 -0.519531 2.3125 -0.773438 2.3125 -1.078125 L 2.3125 -15.546875 C 2.3125 -15.847656 2.414062 -16.101562 2.625 -16.3125 C 2.832031 -16.53125 3.085938 -16.640625 3.390625 -16.640625 L 12.953125 -16.640625 C 13.234375 -16.640625 13.472656 -16.539062 13.671875 -16.34375 C 13.867188 -16.144531 13.96875 -15.90625 13.96875 -15.625 C 13.96875 -15.332031 13.867188 -15.085938 13.671875 -14.890625 C 13.472656 -14.703125 13.234375 -14.609375 12.953125 -14.609375 L 4.484375 -14.609375 L 4.484375 -9.34375 L 12.09375 -9.34375 C 12.375 -9.34375 12.613281 -9.242188 12.8125 -9.046875 C 13.007812 -8.847656 13.109375 -8.609375 13.109375 -8.328125 C 13.109375 -8.035156 13.007812 -7.789062 12.8125 -7.59375 C 12.613281 -7.40625 12.375 -7.3125 12.09375 -7.3125 L 4.484375 -7.3125 L 4.484375 -2.03125 L 12.953125 -2.03125 C 13.234375 -2.03125 13.472656 -1.929688 13.671875 -1.734375 C 13.867188 -1.535156 13.96875 -1.289062 13.96875 -1 C 13.96875 -0.71875 13.867188 -0.476562 13.671875 -0.28125 C 13.472656 -0.09375 13.234375 0 12.953125 0 Z M 3.390625 0 "/></g></g></g><g fill="#545454" fill-opacity="1"><g transform="translate(81.565607, 158.959254)"><g><path d="M 3.390625 0.125 C 3.085938 0.125 2.832031 0.0195312 2.625 -0.1875 C 2.414062 -0.394531 2.3125 -0.648438 2.3125 -0.953125 L 2.3125 -15.546875 C 2.3125 -15.847656 2.414062 -16.101562 2.625 -16.3125 C 2.832031 -16.53125 3.085938 -16.640625 3.390625 -16.640625 L 8.9375 -16.640625 C 11.101562 -16.640625 12.722656 -16.191406 13.796875 -15.296875 C 14.878906 -14.410156 15.421875 -13.242188 15.421875 -11.796875 C 15.421875 -10.847656 15.15625 -9.976562 14.625 -9.1875 C 14.09375 -8.40625 13.316406 -7.835938 12.296875 -7.484375 C 13.441406 -7.179688 14.222656 -6.46875 14.640625 -5.34375 C 15.066406 -4.226562 15.28125 -3.128906 15.28125 -2.046875 L 15.28125 -0.953125 C 15.28125 -0.648438 15.175781 -0.394531 14.96875 -0.1875 C 14.757812 0.0195312 14.503906 0.125 14.203125 0.125 C 13.867188 0.125 13.601562 0.0234375 13.40625 -0.171875 C 13.207031 -0.378906 13.109375 -0.640625 13.109375 -0.953125 L 13.109375 -1.671875 C 13.109375 -2.460938 13.035156 -3.195312 12.890625 -3.875 C 12.753906 -4.550781 12.414062 -5.15625 11.875 -5.6875 C 11.332031 -6.21875 10.515625 -6.484375 9.421875 -6.484375 L 4.484375 -6.484375 L 4.484375 -0.953125 C 4.484375 -0.648438 4.375 -0.394531 4.15625 -0.1875 C 3.945312 0.0195312 3.691406 0.125 3.390625 0.125 Z M 8.796875 -8.53125 C 10.160156 -8.53125 11.242188 -8.800781 12.046875 -9.34375 C 12.847656 -9.882812 13.25 -10.648438 13.25 -11.640625 C 13.25 -12.585938 12.90625 -13.316406 12.21875 -13.828125 C 11.53125 -14.335938 10.347656 -14.59375 8.671875 -14.59375 L 4.484375 -14.59375 L 4.484375 -8.53125 Z M 8.796875 -8.53125 "/></g></g></g><g fill="#545454" fill-opacity="1"><g transform="translate(98.538403, 158.959254)"><g><path d="M 3.390625 0.125 C 3.085938 0.125 2.832031 0.0195312 2.625 -0.1875 C 2.414062 -0.394531 2.3125 -0.648438 2.3125 -0.953125 L 2.3125 -15.1875 C 2.3125 -15.613281 2.460938 -15.984375 2.765625 -16.296875 C 3.066406 -16.609375 3.429688 -16.765625 3.859375 -16.765625 L 4.171875 -16.765625 C 4.679688 -16.765625 5.117188 -16.523438 5.484375 -16.046875 L 14.65625 -2.796875 L 14.65625 -15.671875 C 14.65625 -15.972656 14.757812 -16.226562 14.96875 -16.4375 C 15.175781 -16.65625 15.429688 -16.765625 15.734375 -16.765625 C 16.035156 -16.765625 16.289062 -16.65625 16.5 -16.4375 C 16.71875 -16.226562 16.828125 -15.972656 16.828125 -15.671875 L 16.828125 -1.4375 C 16.828125 -1 16.671875 -0.628906 16.359375 -0.328125 C 16.054688 -0.0234375 15.691406 0.125 15.265625 0.125 L 14.96875 0.125 C 14.71875 0.125 14.476562 0.0664062 14.25 -0.046875 C 14.03125 -0.171875 13.847656 -0.332031 13.703125 -0.53125 L 4.484375 -13.859375 L 4.484375 -0.953125 C 4.484375 -0.648438 4.375 -0.394531 4.15625 -0.1875 C 3.945312 0.0195312 3.691406 0.125 3.390625 0.125 Z M 3.390625 0.125 "/></g></g></g><g fill="#545454" fill-opacity="1"><g transform="translate(117.680477, 158.959254)"><g><path d="M 2.265625 0.125 C 1.941406 0.125 1.679688 0.0195312 1.484375 -0.1875 C 1.285156 -0.394531 1.1875 -0.648438 1.1875 -0.953125 C 1.1875 -1.078125 1.226562 -1.238281 1.3125 -1.4375 L 7.390625 -15.78125 C 7.515625 -16.070312 7.691406 -16.304688 7.921875 -16.484375 C 8.160156 -16.671875 8.445312 -16.765625 8.78125 -16.765625 L 9.015625 -16.765625 C 9.347656 -16.765625 9.628906 -16.671875 9.859375 -16.484375 C 10.085938 -16.304688 10.265625 -16.070312 10.390625 -15.78125 L 16.46875 -1.4375 C 16.550781 -1.238281 16.59375 -1.078125 16.59375 -0.953125 C 16.59375 -0.648438 16.492188 -0.394531 16.296875 -0.1875 C 16.097656 0.0195312 15.835938 0.125 15.515625 0.125 C 15.296875 0.125 15.09375 0.0664062 14.90625 -0.046875 C 14.726562 -0.171875 14.59375 -0.335938 14.5 -0.546875 L 12.953125 -4.265625 L 4.84375 -4.265625 L 3.296875 -0.546875 C 3.191406 -0.335938 3.046875 -0.171875 2.859375 -0.046875 C 2.679688 0.0664062 2.484375 0.125 2.265625 0.125 Z M 5.671875 -6.25 L 12.109375 -6.25 L 8.890625 -14 Z M 5.671875 -6.25 "/></g></g></g><g fill="#545454" fill-opacity="1"><g transform="translate(135.46377, 158.959254)"><g><path d="M 7.25 0.125 C 6.945312 0.125 6.691406 0.0195312 6.484375 -0.1875 C 6.273438 -0.394531 6.171875 -0.648438 6.171875 -0.953125 L 6.171875 -14.609375 L 1.3125 -14.609375 C 1.019531 -14.609375 0.78125 -14.703125 0.59375 -14.890625 C 0.40625 -15.085938 0.3125 -15.332031 0.3125 -15.625 C 0.3125 -15.90625 0.40625 -16.144531 0.59375 -16.34375 C 0.78125 -16.539062 1.019531 -16.640625 1.3125 -16.640625 L 13.1875 -16.640625 C 13.46875 -16.640625 13.707031 -16.539062 13.90625 -16.34375 C 14.101562 -16.144531 14.203125 -15.90625 14.203125 -15.625 C 14.203125 -15.332031 14.101562 -15.085938 13.90625 -14.890625 C 13.707031 -14.703125 13.46875 -14.609375 13.1875 -14.609375 L 8.34375 -14.609375 L 8.34375 -0.953125 C 8.34375 -0.648438 8.234375 -0.394531 8.015625 -0.1875 C 7.804688 0.0195312 7.550781 0.125 7.25 0.125 Z M 7.25 0.125 "/></g></g></g><g fill="#545454" fill-opacity="1"><g transform="translate(149.981233, 158.959254)"><g><path d="M 3.390625 0.125 C 3.085938 0.125 2.832031 0.0195312 2.625 -0.1875 C 2.414062 -0.394531 2.3125 -0.648438 2.3125 -0.953125 L 2.3125 -15.671875 C 2.3125 -15.972656 2.414062 -16.226562 2.625 -16.4375 C 2.832031 -16.65625 3.085938 -16.765625 3.390625 -16.765625 C 3.691406 -16.765625 3.945312 -16.65625 4.15625 -16.4375 C 4.375 -16.226562 4.484375 -15.972656 4.484375 -15.671875 L 4.484375 -0.953125 C 4.484375 -0.648438 4.375 -0.394531 4.15625 -0.1875 C 3.945312 0.0195312 3.691406 0.125 3.390625 0.125 Z M 3.390625 0.125 "/></g></g></g><g fill="#545454" fill-opacity="1"><g transform="translate(156.775121, 158.959254)"><g><path d="M 9.6875 0.234375 C 8.007812 0.234375 6.539062 -0.128906 5.28125 -0.859375 C 4.03125 -1.585938 3.0625 -2.59375 2.375 -3.875 C 1.695312 -5.164062 1.34375 -6.648438 1.3125 -8.328125 C 1.34375 -9.992188 1.695312 -11.46875 2.375 -12.75 C 3.0625 -14.039062 4.03125 -15.050781 5.28125 -15.78125 C 6.539062 -16.507812 8.007812 -16.875 9.6875 -16.875 C 11.351562 -16.875 12.804688 -16.507812 14.046875 -15.78125 C 15.296875 -15.050781 16.265625 -14.035156 16.953125 -12.734375 C 17.648438 -11.441406 18.015625 -9.972656 18.046875 -8.328125 C 18.015625 -6.671875 17.648438 -5.191406 16.953125 -3.890625 C 16.265625 -2.597656 15.296875 -1.585938 14.046875 -0.859375 C 12.804688 -0.128906 11.351562 0.234375 9.6875 0.234375 Z M 9.6875 -1.78125 C 10.957031 -1.78125 12.0625 -2.066406 13 -2.640625 C 13.9375 -3.210938 14.648438 -3.992188 15.140625 -4.984375 C 15.628906 -5.972656 15.875 -7.085938 15.875 -8.328125 C 15.875 -9.566406 15.628906 -10.675781 15.140625 -11.65625 C 14.648438 -12.644531 13.9375 -13.425781 13 -14 C 12.0625 -14.570312 10.957031 -14.859375 9.6875 -14.859375 C 8.394531 -14.859375 7.28125 -14.570312 6.34375 -14 C 5.414062 -13.425781 4.707031 -12.644531 4.21875 -11.65625 C 3.726562 -10.675781 3.484375 -9.566406 3.484375 -8.328125 C 3.484375 -7.085938 3.726562 -5.972656 4.21875 -4.984375 C 4.707031 -3.992188 5.414062 -3.210938 6.34375 -2.640625 C 7.28125 -2.066406 8.394531 -1.78125 9.6875 -1.78125 Z M 9.6875 -1.78125 "/></g></g></g><g fill="#545454" fill-opacity="1"><g transform="translate(176.131735, 158.959254)"><g><path d="M 3.390625 0.125 C 3.085938 0.125 2.832031 0.0195312 2.625 -0.1875 C 2.414062 -0.394531 2.3125 -0.648438 2.3125 -0.953125 L 2.3125 -15.1875 C 2.3125 -15.613281 2.460938 -15.984375 2.765625 -16.296875 C 3.066406 -16.609375 3.429688 -16.765625 3.859375 -16.765625 L 4.171875 -16.765625 C 4.679688 -16.765625 5.117188 -16.523438 5.484375 -16.046875 L 14.65625 -2.796875 L 14.65625 -15.671875 C 14.65625 -15.972656 14.757812 -16.226562 14.96875 -16.4375 C 15.175781 -16.65625 15.429688 -16.765625 15.734375 -16.765625 C 16.035156 -16.765625 16.289062 -16.65625 16.5 -16.4375 C 16.71875 -16.226562 16.828125 -15.972656 16.828125 -15.671875 L 16.828125 -1.4375 C 16.828125 -1 16.671875 -0.628906 16.359375 -0.328125 C 16.054688 -0.0234375 15.691406 0.125 15.265625 0.125 L 14.96875 0.125 C 14.71875 0.125 14.476562 0.0664062 14.25 -0.046875 C 14.03125 -0.171875 13.847656 -0.332031 13.703125 -0.53125 L 4.484375 -13.859375 L 4.484375 -0.953125 C 4.484375 -0.648438 4.375 -0.394531 4.15625 -0.1875 C 3.945312 0.0195312 3.691406 0.125 3.390625 0.125 Z M 3.390625 0.125 "/></g></g></g><g fill="#545454" fill-opacity="1"><g transform="translate(195.273809, 158.959254)"><g><path d="M 2.265625 0.125 C 1.941406 0.125 1.679688 0.0195312 1.484375 -0.1875 C 1.285156 -0.394531 1.1875 -0.648438 1.1875 -0.953125 C 1.1875 -1.078125 1.226562 -1.238281 1.3125 -1.4375 L 7.390625 -15.78125 C 7.515625 -16.070312 7.691406 -16.304688 7.921875 -16.484375 C 8.160156 -16.671875 8.445312 -16.765625 8.78125 -16.765625 L 9.015625 -16.765625 C 9.347656 -16.765625 9.628906 -16.671875 9.859375 -16.484375 C 10.085938 -16.304688 10.265625 -16.070312 10.390625 -15.78125 L 16.46875 -1.4375 C 16.550781 -1.238281 16.59375 -1.078125 16.59375 -0.953125 C 16.59375 -0.648438 16.492188 -0.394531 16.296875 -0.1875 C 16.097656 0.0195312 15.835938 0.125 15.515625 0.125 C 15.296875 0.125 15.09375 0.0664062 14.90625 -0.046875 C 14.726562 -0.171875 14.59375 -0.335938 14.5 -0.546875 L 12.953125 -4.265625 L 4.84375 -4.265625 L 3.296875 -0.546875 C 3.191406 -0.335938 3.046875 -0.171875 2.859375 -0.046875 C 2.679688 0.0664062 2.484375 0.125 2.265625 0.125 Z M 5.671875 -6.25 L 12.109375 -6.25 L 8.890625 -14 Z M 5.671875 -6.25 "/></g></g></g><g fill="#545454" fill-opacity="1"><g transform="translate(213.057102, 158.959254)"><g><path d="M 3.8125 0 C 3.394531 0 3.039062 -0.144531 2.75 -0.4375 C 2.457031 -0.726562 2.3125 -1.082031 2.3125 -1.5 L 2.3125 -15.671875 C 2.3125 -15.972656 2.414062 -16.226562 2.625 -16.4375 C 2.832031 -16.65625 3.085938 -16.765625 3.390625 -16.765625 C 3.691406 -16.765625 3.945312 -16.65625 4.15625 -16.4375 C 4.375 -16.226562 4.484375 -15.972656 4.484375 -15.671875 L 4.484375 -2.171875 L 12.28125 -2.171875 C 12.582031 -2.171875 12.835938 -2.0625 13.046875 -1.84375 C 13.265625 -1.632812 13.375 -1.378906 13.375 -1.078125 C 13.375 -0.773438 13.265625 -0.519531 13.046875 -0.3125 C 12.835938 -0.101562 12.582031 0 12.28125 0 Z M 3.8125 0 "/></g></g></g><g fill="#545454" fill-opacity="1"><g transform="translate(226.787905, 158.959254)"><g/></g></g><g fill="#545454" fill-opacity="1"><g transform="translate(232.985835, 158.959254)"><g><path d="M 9.03125 0.234375 C 7.90625 0.234375 6.816406 0 5.765625 -0.46875 C 4.722656 -0.945312 3.863281 -1.675781 3.1875 -2.65625 C 2.519531 -3.632812 2.1875 -4.832031 2.1875 -6.25 L 2.1875 -15.671875 C 2.1875 -15.972656 2.289062 -16.226562 2.5 -16.4375 C 2.707031 -16.65625 2.960938 -16.765625 3.265625 -16.765625 C 3.566406 -16.765625 3.820312 -16.65625 4.03125 -16.4375 C 4.25 -16.226562 4.359375 -15.972656 4.359375 -15.671875 L 4.359375 -6.171875 C 4.359375 -5.222656 4.578125 -4.410156 5.015625 -3.734375 C 5.453125 -3.066406 6.03125 -2.566406 6.75 -2.234375 C 7.46875 -1.898438 8.226562 -1.734375 9.03125 -1.734375 C 9.84375 -1.734375 10.609375 -1.898438 11.328125 -2.234375 C 12.046875 -2.566406 12.617188 -3.066406 13.046875 -3.734375 C 13.484375 -4.410156 13.703125 -5.222656 13.703125 -6.171875 L 13.703125 -15.671875 C 13.703125 -15.972656 13.804688 -16.226562 14.015625 -16.4375 C 14.222656 -16.65625 14.476562 -16.765625 14.78125 -16.765625 C 15.082031 -16.765625 15.335938 -16.65625 15.546875 -16.4375 C 15.765625 -16.226562 15.875 -15.972656 15.875 -15.671875 L 15.875 -6.25 C 15.875 -4.832031 15.539062 -3.632812 14.875 -2.65625 C 14.207031 -1.675781 13.347656 -0.945312 12.296875 -0.46875 C 11.253906 0 10.164062 0.234375 9.03125 0.234375 Z M 9.03125 0.234375 "/></g></g></g><g fill="#545454" fill-opacity="1"><g transform="translate(251.055194, 158.959254)"><g><path d="M 3.390625 0.125 C 3.085938 0.125 2.832031 0.0195312 2.625 -0.1875 C 2.414062 -0.394531 2.3125 -0.648438 2.3125 -0.953125 L 2.3125 -15.1875 C 2.3125 -15.613281 2.460938 -15.984375 2.765625 -16.296875 C 3.066406 -16.609375 3.429688 -16.765625 3.859375 -16.765625 L 4.171875 -16.765625 C 4.679688 -16.765625 5.117188 -16.523438 5.484375 -16.046875 L 14.65625 -2.796875 L 14.65625 -15.671875 C 14.65625 -15.972656 14.757812 -16.226562 14.96875 -16.4375 C 15.175781 -16.65625 15.429688 -16.765625 15.734375 -16.765625 C 16.035156 -16.765625 16.289062 -16.65625 16.5 -16.4375 C 16.71875 -16.226562 16.828125 -15.972656 16.828125 -15.671875 L 16.828125 -1.4375 C 16.828125 -1 16.671875 -0.628906 16.359375 -0.328125 C 16.054688 -0.0234375 15.691406 0.125 15.265625 0.125 L 14.96875 0.125 C 14.71875 0.125 14.476562 0.0664062 14.25 -0.046875 C 14.03125 -0.171875 13.847656 -0.332031 13.703125 -0.53125 L 4.484375 -13.859375 L 4.484375 -0.953125 C 4.484375 -0.648438 4.375 -0.394531 4.15625 -0.1875 C 3.945312 0.0195312 3.691406 0.125 3.390625 0.125 Z M 3.390625 0.125 "/></g></g></g><g fill="#545454" fill-opacity="1"><g transform="translate(270.197279, 158.959254)"><g><path d="M 3.390625 0.125 C 3.085938 0.125 2.832031 0.0195312 2.625 -0.1875 C 2.414062 -0.394531 2.3125 -0.648438 2.3125 -0.953125 L 2.3125 -15.671875 C 2.3125 -15.972656 2.414062 -16.226562 2.625 -16.4375 C 2.832031 -16.65625 3.085938 -16.765625 3.390625 -16.765625 C 3.691406 -16.765625 3.945312 -16.65625 4.15625 -16.4375 C 4.375 -16.226562 4.484375 -15.972656 4.484375 -15.671875 L 4.484375 -0.953125 C 4.484375 -0.648438 4.375 -0.394531 4.15625 -0.1875 C 3.945312 0.0195312 3.691406 0.125 3.390625 0.125 Z M 3.390625 0.125 "/></g></g></g><g fill="#545454" fill-opacity="1"><g transform="translate(276.991156, 158.959254)"><g><path d="M 8.015625 0.125 C 7.359375 0.125 6.863281 -0.242188 6.53125 -0.984375 L 0.640625 -15.265625 C 0.597656 -15.390625 0.578125 -15.523438 0.578125 -15.671875 C 0.578125 -16.003906 0.671875 -16.269531 0.859375 -16.46875 C 1.046875 -16.664062 1.304688 -16.765625 1.640625 -16.765625 C 1.867188 -16.765625 2.070312 -16.695312 2.25 -16.5625 C 2.4375 -16.425781 2.578125 -16.242188 2.671875 -16.015625 L 8.28125 -2.046875 L 13.875 -16.015625 C 13.96875 -16.242188 14.101562 -16.425781 14.28125 -16.5625 C 14.46875 -16.695312 14.675781 -16.765625 14.90625 -16.765625 C 15.238281 -16.765625 15.5 -16.664062 15.6875 -16.46875 C 15.875 -16.269531 15.96875 -16.003906 15.96875 -15.671875 C 15.96875 -15.523438 15.945312 -15.390625 15.90625 -15.265625 L 10.015625 -0.984375 C 9.679688 -0.242188 9.1875 0.125 8.53125 0.125 Z M 8.015625 0.125 "/></g></g></g><g fill="#545454" fill-opacity="1"><g transform="translate(293.53487, 158.959254)"><g><path d="M 3.390625 0 C 3.085938 0 2.832031 -0.101562 2.625 -0.3125 C 2.414062 -0.519531 2.3125 -0.773438 2.3125 -1.078125 L 2.3125 -15.546875 C 2.3125 -15.847656 2.414062 -16.101562 2.625 -16.3125 C 2.832031 -16.53125 3.085938 -16.640625 3.390625 -16.640625 L 12.953125 -16.640625 C 13.234375 -16.640625 13.472656 -16.539062 13.671875 -16.34375 C 13.867188 -16.144531 13.96875 -15.90625 13.96875 -15.625 C 13.96875 -15.332031 13.867188 -15.085938 13.671875 -14.890625 C 13.472656 -14.703125 13.234375 -14.609375 12.953125 -14.609375 L 4.484375 -14.609375 L 4.484375 -9.34375 L 12.09375 -9.34375 C 12.375 -9.34375 12.613281 -9.242188 12.8125 -9.046875 C 13.007812 -8.847656 13.109375 -8.609375 13.109375 -8.328125 C 13.109375 -8.035156 13.007812 -7.789062 12.8125 -7.59375 C 12.613281 -7.40625 12.375 -7.3125 12.09375 -7.3125 L 4.484375 -7.3125 L 4.484375 -2.03125 L 12.953125 -2.03125 C 13.234375 -2.03125 13.472656 -1.929688 13.671875 -1.734375 C 13.867188 -1.535156 13.96875 -1.289062 13.96875 -1 C 13.96875 -0.71875 13.867188 -0.476562 13.671875 -0.28125 C 13.472656 -0.09375 13.234375 0 12.953125 0 Z M 3.390625 0 "/></g></g></g><g fill="#545454" fill-opacity="1"><g transform="translate(308.743643, 158.959254)"><g><path d="M 3.390625 0.125 C 3.085938 0.125 2.832031 0.0195312 2.625 -0.1875 C 2.414062 -0.394531 2.3125 -0.648438 2.3125 -0.953125 L 2.3125 -15.546875 C 2.3125 -15.847656 2.414062 -16.101562 2.625 -16.3125 C 2.832031 -16.53125 3.085938 -16.640625 3.390625 -16.640625 L 8.9375 -16.640625 C 11.101562 -16.640625 12.722656 -16.191406 13.796875 -15.296875 C 14.878906 -14.410156 15.421875 -13.242188 15.421875 -11.796875 C 15.421875 -10.847656 15.15625 -9.976562 14.625 -9.1875 C 14.09375 -8.40625 13.316406 -7.835938 12.296875 -7.484375 C 13.441406 -7.179688 14.222656 -6.46875 14.640625 -5.34375 C 15.066406 -4.226562 15.28125 -3.128906 15.28125 -2.046875 L 15.28125 -0.953125 C 15.28125 -0.648438 15.175781 -0.394531 14.96875 -0.1875 C 14.757812 0.0195312 14.503906 0.125 14.203125 0.125 C 13.867188 0.125 13.601562 0.0234375 13.40625 -0.171875 C 13.207031 -0.378906 13.109375 -0.640625 13.109375 -0.953125 L 13.109375 -1.671875 C 13.109375 -2.460938 13.035156 -3.195312 12.890625 -3.875 C 12.753906 -4.550781 12.414062 -5.15625 11.875 -5.6875 C 11.332031 -6.21875 10.515625 -6.484375 9.421875 -6.484375 L 4.484375 -6.484375 L 4.484375 -0.953125 C 4.484375 -0.648438 4.375 -0.394531 4.15625 -0.1875 C 3.945312 0.0195312 3.691406 0.125 3.390625 0.125 Z M 8.796875 -8.53125 C 10.160156 -8.53125 11.242188 -8.800781 12.046875 -9.34375 C 12.847656 -9.882812 13.25 -10.648438 13.25 -11.640625 C 13.25 -12.585938 12.90625 -13.316406 12.21875 -13.828125 C 11.53125 -14.335938 10.347656 -14.59375 8.671875 -14.59375 L 4.484375 -14.59375 L 4.484375 -8.53125 Z M 8.796875 -8.53125 "/></g></g></g><g fill="#545454" fill-opacity="1"><g transform="translate(325.716438, 158.959254)"><g><path d="M 7.5625 0.234375 C 5.539062 0.234375 3.648438 -0.144531 1.890625 -0.90625 C 1.691406 -0.988281 1.53125 -1.117188 1.40625 -1.296875 C 1.28125 -1.484375 1.21875 -1.679688 1.21875 -1.890625 C 1.21875 -2.148438 1.304688 -2.378906 1.484375 -2.578125 C 1.671875 -2.785156 1.90625 -2.890625 2.1875 -2.890625 C 2.351562 -2.890625 2.503906 -2.859375 2.640625 -2.796875 C 4.109375 -2.140625 5.675781 -1.8125 7.34375 -1.8125 C 10.125 -1.8125 11.515625 -2.722656 11.515625 -4.546875 C 11.515625 -5.023438 11.332031 -5.421875 10.96875 -5.734375 C 10.613281 -6.054688 10.175781 -6.304688 9.65625 -6.484375 C 9.132812 -6.671875 8.390625 -6.894531 7.421875 -7.15625 C 6.128906 -7.488281 5.082031 -7.804688 4.28125 -8.109375 C 3.488281 -8.421875 2.804688 -8.882812 2.234375 -9.5 C 1.671875 -10.125 1.390625 -10.957031 1.390625 -12 C 1.390625 -12.90625 1.625 -13.722656 2.09375 -14.453125 C 2.570312 -15.191406 3.273438 -15.78125 4.203125 -16.21875 C 5.140625 -16.65625 6.257812 -16.875 7.5625 -16.875 C 9.3125 -16.875 10.890625 -16.613281 12.296875 -16.09375 C 12.742188 -15.9375 12.96875 -15.617188 12.96875 -15.140625 C 12.96875 -14.890625 12.878906 -14.660156 12.703125 -14.453125 C 12.535156 -14.242188 12.304688 -14.140625 12.015625 -14.140625 C 11.921875 -14.140625 11.796875 -14.171875 11.640625 -14.234375 C 10.398438 -14.660156 9.117188 -14.875 7.796875 -14.875 C 6.535156 -14.875 5.507812 -14.632812 4.71875 -14.15625 C 3.9375 -13.6875 3.546875 -13.019531 3.546875 -12.15625 C 3.546875 -11.582031 3.734375 -11.117188 4.109375 -10.765625 C 4.484375 -10.410156 4.953125 -10.132812 5.515625 -9.9375 C 6.078125 -9.738281 6.847656 -9.523438 7.828125 -9.296875 C 9.078125 -8.992188 10.085938 -8.691406 10.859375 -8.390625 C 11.628906 -8.085938 12.285156 -7.617188 12.828125 -6.984375 C 13.378906 -6.347656 13.65625 -5.488281 13.65625 -4.40625 C 13.65625 -3.519531 13.398438 -2.722656 12.890625 -2.015625 C 12.390625 -1.304688 11.675781 -0.753906 10.75 -0.359375 C 9.832031 0.0351562 8.769531 0.234375 7.5625 0.234375 Z M 7.5625 0.234375 "/></g></g></g><g fill="#545454" fill-opacity="1"><g transform="translate(340.400778, 158.959254)"><g><path d="M 3.390625 0.125 C 3.085938 0.125 2.832031 0.0195312 2.625 -0.1875 C 2.414062 -0.394531 2.3125 -0.648438 2.3125 -0.953125 L 2.3125 -15.671875 C 2.3125 -15.972656 2.414062 -16.226562 2.625 -16.4375 C 2.832031 -16.65625 3.085938 -16.765625 3.390625 -16.765625 C 3.691406 -16.765625 3.945312 -16.65625 4.15625 -16.4375 C 4.375 -16.226562 4.484375 -15.972656 4.484375 -15.671875 L 4.484375 -0.953125 C 4.484375 -0.648438 4.375 -0.394531 4.15625 -0.1875 C 3.945312 0.0195312 3.691406 0.125 3.390625 0.125 Z M 3.390625 0.125 "/></g></g></g><g fill="#545454" fill-opacity="1"><g transform="translate(347.194655, 158.959254)"><g><path d="M 7.25 0.125 C 6.945312 0.125 6.691406 0.0195312 6.484375 -0.1875 C 6.273438 -0.394531 6.171875 -0.648438 6.171875 -0.953125 L 6.171875 -14.609375 L 1.3125 -14.609375 C 1.019531 -14.609375 0.78125 -14.703125 0.59375 -14.890625 C 0.40625 -15.085938 0.3125 -15.332031 0.3125 -15.625 C 0.3125 -15.90625 0.40625 -16.144531 0.59375 -16.34375 C 0.78125 -16.539062 1.019531 -16.640625 1.3125 -16.640625 L 13.1875 -16.640625 C 13.46875 -16.640625 13.707031 -16.539062 13.90625 -16.34375 C 14.101562 -16.144531 14.203125 -15.90625 14.203125 -15.625 C 14.203125 -15.332031 14.101562 -15.085938 13.90625 -14.890625 C 13.707031 -14.703125 13.46875 -14.609375 13.1875 -14.609375 L 8.34375 -14.609375 L 8.34375 -0.953125 C 8.34375 -0.648438 8.234375 -0.394531 8.015625 -0.1875 C 7.804688 0.0195312 7.550781 0.125 7.25 0.125 Z M 7.25 0.125 "/></g></g></g><g fill="#545454" fill-opacity="1"><g transform="translate(361.71213, 158.959254)"><g><path d="M 7.625 0.125 C 7.320312 0.125 7.0625 0.0195312 6.84375 -0.1875 C 6.632812 -0.394531 6.53125 -0.648438 6.53125 -0.953125 L 6.53125 -7.03125 L 0.828125 -15.015625 C 0.703125 -15.222656 0.640625 -15.441406 0.640625 -15.671875 C 0.640625 -15.972656 0.738281 -16.226562 0.9375 -16.4375 C 1.132812 -16.65625 1.382812 -16.765625 1.6875 -16.765625 C 2.082031 -16.765625 2.398438 -16.582031 2.640625 -16.21875 L 7.625 -8.96875 L 12.609375 -16.21875 C 12.847656 -16.582031 13.164062 -16.765625 13.5625 -16.765625 C 13.863281 -16.765625 14.117188 -16.65625 14.328125 -16.4375 C 14.535156 -16.226562 14.628906 -15.972656 14.609375 -15.671875 C 14.609375 -15.441406 14.546875 -15.222656 14.421875 -15.015625 L 8.703125 -7.03125 L 8.703125 -0.953125 C 8.703125 -0.648438 8.597656 -0.394531 8.390625 -0.1875 C 8.179688 0.0195312 7.925781 0.125 7.625 0.125 Z M 7.625 0.125 "/></g></g></g><g fill="#1d9acc" fill-opacity="1"><g transform="translate(420.595652, 86.125855)"><g><path d="M 20.703125 -7.65625 C 19.910156 -7.65625 19.234375 -7.9375 18.671875 -8.5 C 18.109375 -9.070312 17.828125 -9.75 17.828125 -10.53125 L 17.828125 -22.625 L 5.75 -22.625 C 4.957031 -22.625 4.289062 -22.890625 3.75 -23.421875 C 3.21875 -23.960938 2.953125 -24.628906 2.953125 -25.421875 C 2.953125 -26.253906 3.21875 -26.941406 3.75 -27.484375 C 4.289062 -28.023438 4.957031 -28.296875 5.75 -28.296875 L 17.828125 -28.296875 L 17.828125 -40.375 C 17.828125 -41.207031 18.109375 -41.894531 18.671875 -42.4375 C 19.234375 -42.976562 19.910156 -43.25 20.703125 -43.25 C 21.535156 -43.25 22.222656 -42.976562 22.765625 -42.4375 C 23.304688 -41.894531 23.578125 -41.207031 23.578125 -40.375 L 23.578125 -28.296875 L 35.578125 -28.296875 C 36.410156 -28.296875 37.097656 -28.023438 37.640625 -27.484375 C 38.179688 -26.941406 38.453125 -26.253906 38.453125 -25.421875 C 38.453125 -24.628906 38.179688 -23.960938 37.640625 -23.421875 C 37.097656 -22.890625 36.410156 -22.625 35.578125 -22.625 L 23.578125 -22.625 L 23.578125 -10.53125 C 23.578125 -9.75 23.304688 -9.070312 22.765625 -8.5 C 22.222656 -7.9375 21.535156 -7.65625 20.703125 -7.65625 Z M 20.703125 -7.65625 "/></g></g></g></svg>